<svg width="15" height="15" viewBox="0 0 15 16" fill="none" xmlns="http://www.w3.org/2000/svg">
<path fill-rule="evenodd" clip-rule="evenodd" d="M2.04263 2.05374H7.5C7.89964 2.05374 8.22824 1.72514 8.22824 1.3255V0.73935C8.22824 0.339705 7.89964 0.0111084 7.5 0.0111084H1.27886C0.572824 0.0111084 0 0.583933 0 1.28997V13.7322C0 14.4383 0.572824 15.0111 1.27886 15.0111H13.7211C14.4272 15.0111 15 14.4383 15 13.7322V7.51111C15 7.11146 14.6714 6.78287 14.2718 6.78287H13.6856C13.286 6.78287 12.9574 7.11146 12.9574 7.51111V12.9685H2.04263V2.05374Z" fill="white"/>
<path fill-rule="evenodd" clip-rule="evenodd" d="M14.2718 5.86368C14.6714 5.86368 15 5.53509 15 5.13544V1.3255C15 0.601695 14.4094 0.0111084 13.6856 0.0111084H9.87567C9.47603 0.0111084 9.14743 0.339705 9.14743 0.73935V1.3255C9.14743 1.72514 9.47603 2.05374 9.87567 2.05374H11.5009L6.48757 7.06706C6.08349 7.47114 6.08349 8.1239 6.48757 8.52798C6.89166 8.93207 7.54441 8.93207 7.9485 8.52798L12.9618 3.51466V5.13988C12.9618 5.53953 13.2904 5.86812 13.6901 5.86812H14.2762L14.2718 5.86368Z" fill="white"/>
</svg>
